<svg xmlns="http://www.w3.org/2000/svg" width="300" height="200" viewBox="0 0 300 200"><rect width="100%" height="100%" fill="#DDDDDD"/><path fill="#999999" d="m95.22 72.825-2.48 4.7q-.44.78-.94 1.13-.5.35-1.24.35-.78 0-1.68-.57-.91-.58-2.17-1.28-1.25-.7-2.94-1.28-1.68-.57-3.98-.57-2.07 0-3.62.5-1.56.5-2.61 1.39-1.05.88-1.57 2.12-.52 1.24-.52 2.72 0 1.89 1.05 3.15 1.06 1.26 2.8 2.14 1.74.89 3.96 1.59 2.22.71 4.55 1.5 2.33.8 4.55 1.85 2.22 1.06 3.96 2.67 1.74 1.61 2.79 3.94 1.06 2.33 1.06 5.66 0 3.63-1.24 6.79t-3.63 5.51q-2.39 2.35-5.83 3.7t-7.88 1.35q-2.55 0-5.03-.5-2.48-.5-4.75-1.42-2.28-.93-4.28-2.22-2-1.3-3.55-2.89l2.92-4.77q.37-.52.97-.87.59-.35 1.25-.35.93 0 2 .76 1.07.76 2.55 1.68 1.48.93 3.46 1.68 1.98.76 4.76.76 4.25 0 6.58-2.01 2.34-2.02 2.34-5.79 0-2.11-1.06-3.45-1.05-1.33-2.79-2.23-1.74-.91-3.96-1.54-2.22-.63-4.52-1.37-2.29-.74-4.51-1.77-2.22-1.04-3.96-2.71-1.74-1.66-2.79-4.16-1.06-2.5-1.06-6.16 0-2.92 1.17-5.7 1.16-2.77 3.38-4.92 2.22-2.14 5.48-3.44 3.26-1.29 7.47-1.29 4.74 0 8.74 1.48 3.99 1.48 6.8 4.14Zm31.75 10.51h9.14v37.96h-5.59q-1.81 0-2.29-1.66l-.63-3.04q-2.33 2.37-5.14 3.83-2.82 1.46-6.63 1.46-3.11 0-5.49-1.05-2.39-1.06-4.02-2.98-1.62-1.92-2.46-4.57-.83-2.65-.83-5.83v-24.12h9.14v24.12q0 3.48 1.61 5.39 1.61 1.9 4.83 1.9 2.37 0 4.44-1.05 2.07-1.06 3.92-2.91v-27.45Zm27.31 11.1v17.02q1.55 1.89 3.38 2.66 1.83.78 3.87.78 2.11 0 3.79-.76 1.68-.76 2.87-2.37 1.18-1.61 1.81-4.1.63-2.5.63-5.98 0-6.25-2.07-9.05-2.07-2.79-5.96-2.79-2.63 0-4.59 1.2-1.96 1.21-3.73 3.39Zm0-28.12v21.68q2.29-2.4 5.08-3.83 2.8-1.42 6.39-1.42 3.29 0 5.93 1.29 2.65 1.3 4.52 3.72 1.87 2.42 2.87 5.86.99 3.45.99 7.74 0 4.62-1.14 8.4-1.15 3.77-3.28 6.45-2.12 2.69-5.12 4.17-3 1.47-6.66 1.47-1.78 0-3.22-.35-1.44-.35-2.66-.98-1.23-.63-2.24-1.53-1.02-.91-1.95-2.02l-.4 2.55q-.22.97-.76 1.37-.54.41-1.46.41h-6.03v-54.98h9.14Zm32.96 0h9.14v54.98h-9.14v-54.98Zm45.44 17.02H240l-20.68 48.39q-.41.97-1.05 1.47-.65.49-1.98.49h-6.81l7.1-15.24-15.35-35.11h8.03q1.07 0 1.68.52.61.51.91 1.18l8.06 19.68q.41 1 .69 2 .28 1 .53 2.04.34-1.04.67-2.06.33-1.01.74-2.01l7.62-19.65q.3-.74.98-1.22.69-.48 1.54-.48Z"/></svg>